<svg xmlns="http://www.w3.org/2000/svg" xmlns:xlink="http://www.w3.org/1999/xlink" viewBox="176.6269 184.8692 300.8477 143.8865" width="333" height="159.26398805774485" x="83.5px" y="170.368px" preserveAspectRatio="none"><defs/><style>.companyName {fill:#1e1e1e;fill-opacity:1;}.icon3-str {stroke:#848383;stroke-opacity:1;}</style><g opacity="1" transform="rotate(-10 176.6269 235.0018)">
<svg width="288.7024" height="95.2002" x="176.6269" y="235.0018" version="1.1" preserveAspectRatio="none" viewBox="-0.36 -33.8 114.12 37.64">
  <g transform="matrix(1 0 0 1 0 0)" class="companyName"><path id="id-D6z1nYkh5" d="M21.92 3.84L21.92 3.84Q21.56 3.84 21.20 3.76L21.20 3.76Q19.28 3.40 19.28 0.36L19.28 0.36Q19.28-4.56 24.24-16.40L24.24-16.40Q26.16-20.88 27.08-25.12L27.08-25.12Q27.44-26.76 27.44-27.74Q27.44-28.72 27.36-29.28L27.36-29.28Q27.16-31.04 26.04-31.72L26.04-31.72Q24.04-32.80 21.56-32.80L21.56-32.80Q18.96-32.80 16.08-31.52Q13.20-30.24 10.66-28.40Q8.12-26.56 6.04-24.02Q3.96-21.48 2.94-18.70Q1.92-15.92 1.92-13.68L1.92-13.68Q1.92-12.76 2.08-11.92L2.08-11.92Q2.72-9.16 4.48-7.80Q6.24-6.44 8.64-6.44L8.64-6.44Q12-6.44 14.94-9.40Q17.88-12.36 17.88-15.68L17.88-15.68Q17.88-17.48 17.16-18.28Q16.44-19.08 15.68-19.08Q14.92-19.08 14.16-18.86Q13.40-18.64 13.40-18.90Q13.40-19.16 14.32-19.58Q15.24-20 16.24-20Q17.24-20 18.08-19.40L18.08-19.40Q19.64-18.20 19.64-15.76Q19.64-13.32 17.78-10.86Q15.92-8.40 13.20-6.90Q10.48-5.40 7.82-5.40Q5.16-5.40 2.88-7.34Q0.60-9.28-0.16-12.56L-0.16-12.56Q-0.36-13.52-0.36-14.60L-0.36-14.60Q-0.36-17.12 0.88-20.08Q2.12-23.04 4.46-25.58Q6.80-28.12 9.52-29.82Q12.24-31.52 15.28-32.64L15.28-32.64Q18.32-33.80 21-33.80Q23.68-33.80 25.88-32.96L25.88-32.96Q29.76-31.28 29.76-25.84L29.76-25.84Q29.76-21.84 26.88-15.92L26.88-15.92Q25.08-12.24 23.68-8L23.68-8Q21.60-1.72 21.60 0.72L21.60 0.72Q21.60 2.56 22.84 2.56L22.84 2.56Q25.32 2.56 31.52-3.88L31.52-3.88Q35.88-8.40 38.36-13.80L38.36-13.80Q39.96-17.24 39.96-20.12L39.96-20.12Q39.96-21.64 39.72-22.26Q39.48-22.88 39.40-23.06Q39.32-23.24 39.08-23.38Q38.84-23.52 38.76-23.52L38.76-23.52Q38.20-23.68 37.60-23.78Q37-23.88 36.90-24.32Q36.80-24.76 37.32-24.84L37.32-24.84L38.08-24.76Q39.92-24.24 41.28-22.16L41.28-22.16Q42.04-21 42.04-19.38Q42.04-17.76 41.28-15.56L41.28-15.56Q39.44-10.68 35.60-5.94Q31.76-1.20 28.02 1.32Q24.28 3.84 21.92 3.84Z M90.88-7.68L90.88-7.68Q90.88-5.40 89.24-3.44L89.24-3.44Q86.92-0.64 83.04 0.60L83.04 0.60Q80.16 1.52 77.44 1.52L77.44 1.52Q76.44 1.52 75.48 1.40L75.48 1.40Q69.20 0.60 64.84-1.36L64.84-1.36Q60.88 1.56 56.48 1.56L56.48 1.56Q51.28 1.56 50.04-1.32L50.04-1.32Q49.76-2 49.76-2.92Q49.76-3.84 50.68-4.88L50.68-4.88Q52.12-6.48 54.68-6.48L54.68-6.48Q56.36-6.48 57.72-6Q59.08-5.52 61.08-4.44Q63.08-3.36 64.04-2.88L64.04-2.88Q65.80-4.60 67.68-7.66Q69.56-10.72 70.98-13.66Q72.40-16.60 74.60-20.20Q76.80-23.80 79.08-26.32L79.08-26.32L81.36-28.92Q78.20-29.48 74.40-29.48Q70.60-29.48 66.04-28.48L66.04-28.48Q59.80-27.16 56.44-23.12L56.44-23.12Q54.40-20.68 54.40-18.48L54.40-18.48Q54.40-15.56 57.24-14.68L57.24-14.68Q58.24-14.40 59-14.40Q59.76-14.40 60.76-14.68Q61.76-14.96 62.70-15.86Q63.64-16.76 64.06-17.60Q64.48-18.44 64.48-18.86Q64.48-19.28 64.88-19.28L64.88-19.28Q65.28-19.24 65.32-18.72L65.32-18.72L65.32-18.68Q64.88-15.76 62.20-14.24L62.20-14.24Q60.56-13.36 58.92-13.36L58.92-13.36L56.84-13.72Q52.60-15.20 52.60-19.24L52.60-19.24Q52.60-22 55.04-24.68L55.04-24.68Q58.96-29.08 66.56-30.16L66.56-30.16Q70.24-30.68 74.22-30.68Q78.20-30.68 82.32-29.80L82.32-29.80Q83.44-30.76 84.28-31.08Q85.12-31.40 85.26-31.40Q85.40-31.40 85.44-31.36L85.44-31.36Q85.68-31.36 85.54-31.10Q85.40-30.84 84.66-30.36Q83.92-29.88 83.76-29.48L83.76-29.48Q89.20-28.08 91.60-25.48L91.60-25.48Q92.88-24.04 92.88-22.54Q92.88-21.04 92-19.52L92-19.52Q90.84-17.52 88.24-16.50Q85.64-15.48 83-15.36L83-15.36Q85.56-14.56 87.76-13.12L87.76-13.12Q90.88-11.08 90.88-7.68ZM76.88 0.40L76.88 0.40Q81.36 0.40 84.48-2.16L84.48-2.16Q87.88-4.88 87.88-8.04L87.88-8.04Q87.88-11.32 84.40-13L84.40-13Q83.12-13.60 81.26-14.18Q79.40-14.76 78.26-15.16Q77.12-15.56 76.96-15.92L76.96-15.92Q76.96-16.68 78.12-16.72L78.12-16.72Q78.88-16.72 80.44-16.60Q82-16.48 83.12-16.50Q84.24-16.52 85.82-17.30Q87.40-18.08 88.52-19.32L88.52-19.32Q90.32-21.32 90.32-23.08L90.32-23.08Q90.32-26.84 83.28-28.48L83.28-28.48Q81.16-25.56 75.68-16.14Q70.20-6.72 67.24-3.52L67.24-3.52L65.72-2.08Q70.24-0.20 75.44 0.32L75.44 0.32Q76.20 0.40 76.88 0.40ZM63.16-2.12L63.16-2.12Q58.48-4.36 57.24-4.80Q56-5.24 54.78-5.24Q53.56-5.24 52.84-4.38Q52.12-3.52 52.12-2.82Q52.12-2.12 52.44-1.48L52.44-1.48Q53.32 0.32 56.12 0.32L56.12 0.32Q59.92 0.32 63.16-2.12Z M95.04-6.16L95.04-6.16Q94.48-4.80 94.48-3.12L94.48-3.12Q94.48-2 94.98-1.34Q95.48-0.68 96.40-0.68L96.40-0.68Q100.04-0.68 103-7.52L103-7.52Q103.28-8.16 103.68-8.08L103.68-8.08Q103.84-8.04 103.84-7.88Q103.84-7.72 102.94-5.78Q102.04-3.84 101.12-2.64L101.12-2.64Q99.08 0.16 96.08 0.16L96.08 0.16Q94.48 0.16 93.36-0.88Q92.24-1.92 92.24-3.72Q92.24-5.52 93.10-7.54Q93.96-9.56 95.44-11.30Q96.92-13.04 98.84-13.84L98.84-13.84Q99.76-14.24 100.60-14.24Q101.44-14.24 102.16-13.76L102.16-13.76Q102.84-13.20 102.84-12.52L102.84-12.52Q102.84-10.12 99.96-7.92L99.96-7.92Q99.08-7.24 97.48-6.70Q95.88-6.16 95.04-6.16ZM101.76-12.56L101.76-12.56Q101.76-13.36 101.12-13.36L101.12-13.36Q100-13.36 97.72-10.60L97.72-10.60Q96.36-8.92 95.32-6.84L95.32-6.84Q96-6.84 97.30-7.32Q98.60-7.80 99.56-8.60L99.56-8.60Q101.76-10.48 101.76-12.56Z M102.12-3.20L102.12-3.20Q102.12-6.52 105.32-14.32L105.32-14.32L103.24-14.32Q103.04-14.32 102.98-14.54Q102.92-14.76 103.02-14.98Q103.12-15.20 103.32-15.20L103.32-15.20L105.72-15.20Q107.16-18.36 108.40-20.48Q109.64-22.60 110.68-23.34Q111.72-24.08 112.18-24.08Q112.64-24.08 112.84-24L112.84-24Q113.76-23.56 113.76-22.18Q113.76-20.80 112.84-18.84Q111.92-16.88 111.04-15.20L111.04-15.20L112.96-15.20Q113.16-15.20 113.22-14.98Q113.28-14.76 113.18-14.54Q113.08-14.32 112.88-14.32L112.88-14.32L110.56-14.32Q108.36-10.60 105.24-7.72L105.24-7.72L104.32-3.64Q104.20-3.12 104.20-2.62Q104.20-2.12 104.48-1.60Q104.76-1.08 105.36-1.08L105.36-1.08Q106.04-1.08 106.88-1.56L106.88-1.56Q108.80-3 111.12-7.60L111.12-7.60Q111.28-7.96 111.50-8.04Q111.72-8.12 111.76-7.94Q111.80-7.76 111.64-7.36L111.64-7.36Q110.32-4.60 109.56-3.44L109.56-3.44Q107.40 0.04 104.96 0.04L104.96 0.04Q103.72 0.04 102.92-0.88Q102.12-1.80 102.12-3.20ZM108.16-15.20L110.16-15.20Q112.80-19.92 112.80-21.76L112.80-21.76Q112.80-22.56 112.52-22.56L112.52-22.56Q112.08-22.56 111.18-21.28Q110.28-20 108.16-15.20L108.16-15.20ZM109.64-14.32L109.64-14.32L107.76-14.32Q107.28-13.20 105.60-9L105.60-9Q107.76-11.24 109.64-14.32Z"/></g>
</svg>
</g></svg>